{
    "asset" : {
        "generator" : "Khronos glTF Blender I/O v1.1.46",
        "version" : "2.0"
    },
    "scene" : 0,
    "scenes" : [
        {
            "extras" : {
                "b_painter_panels" : [
                    "BRUSH",
                    "COLOR",
                    "TEXTURE",
                    "STENCIL",
                    "LAYER"
                ],
                "b_painter_active_tex_brush_category" : "Brush Textures",
                "b_painter_active_tex_brush" : "None",
                "b_painter_brush" : 3,
                "current_palette_color" : [
                    0.01568627543747425,
                    0,
                    0.250980406999588
                ],
                "b_painter_tex_stencil_categories" : 1,
                "b_painter_active_stencil_category" : "Stencil Shapes",
                "b_painter_load_first_time" : 0,
                "b_painter_active_brush" : "Brush Default"
            },
            "name" : "Scene",
            "nodes" : [
                0,
                3,
                5
            ]
        }
    ],
    "nodes" : [
        {
            "name" : "Point",
            "translation" : [
                -1.0151491165161133,
                1.4111285209655762,
                2.1294820308685303
            ]
        },
        {
            "extras" : {
                "name" : "Core"
            },
            "mesh" : 0,
            "name" : "Core",
            "rotation" : [
                -0.053159818053245544,
                0.014389165677130222,
                0.030373504385352135,
                0.9980202913284302
            ],
            "translation" : [
                -0.0537281259894371,
                -0.0018035738030448556,
                0.02826027385890484
            ]
        },
        {
            "extras" : {
                "name" : "Wall",
                "b_painter_active_material" : 0
            },
            "mesh" : 1,
            "name" : "Wall",
            "rotation" : [
                -0.03757499158382416,
                0,
                0.012524996884167194,
                0.9992154240608215
            ],
            "scale" : [
                1.7642661333084106,
                1.7642662525177002,
                1.7642664909362793
            ],
            "translation" : [
                -0.004826186690479517,
                0.007449114695191383,
                0.003602154552936554
            ]
        },
        {
            "children" : [
                1,
                2
            ],
            "extras" : {
                "b_painter_panels" : [
                    "BRUSH",
                    "COLOR",
                    "TEXTURE",
                    "STENCIL",
                    "LAYER"
                ],
                "b_painter_active_tex_brush_category" : "Brush Textures",
                "b_painter_active_tex_brush" : "None",
                "b_painter_brush" : 3,
                "current_palette_color" : [
                    0.01568627543747425,
                    0,
                    0.250980406999588
                ],
                "b_painter_tex_stencil_categories" : 1,
                "b_painter_active_stencil_category" : "Stencil Shapes",
                "b_painter_load_first_time" : 0,
                "b_painter_active_brush" : "Brush Default"
            },
            "name" : "StemCellModel_0810_Blender.glb",
            "rotation" : [
                0.7071068286895752,
                0,
                0,
                0.7071067094802856
            ]
        },
        {
            "camera" : 0,
            "name" : "Camera_Orientation",
            "rotation" : [
                -0.7071067690849304,
                0,
                0,
                0.7071067690849304
            ]
        },
        {
            "children" : [
                4
            ],
            "extras" : {
                "b_painter_active_material" : 0
            },
            "name" : "Camera",
            "rotation" : [
                0.47711390256881714,
                0.5152757167816162,
                -0.4758189618587494,
                0.5295749306678772
            ],
            "scale" : [
                0.3431013524532318,
                0.3431013822555542,
                0.3431013822555542
            ],
            "translation" : [
                14.534008979797363,
                0.5994759202003479,
                1.4287946224212646
            ]
        }
    ],
    "cameras" : [
        {
            "extras" : {
                "autoAnimate" : 0,
                "CameraType" : 6
            },
            "name" : "Camera",
            "perspective" : {
                "yfov" : 0.39959652046304894,
                "zfar" : 1000,
                "znear" : 0.10000000149011612
            },
            "type" : "perspective"
        }
    ],
    "animations" : [
        {
            "channels" : [
                {
                    "sampler" : 0,
                    "target" : {
                        "node" : 2,
                        "path" : "translation"
                    }
                },
                {
                    "sampler" : 1,
                    "target" : {
                        "node" : 2,
                        "path" : "rotation"
                    }
                },
                {
                    "sampler" : 2,
                    "target" : {
                        "node" : 2,
                        "path" : "scale"
                    }
                }
            ],
            "name" : "WallMotion",
            "samplers" : [
                {
                    "input" : 8,
                    "interpolation" : "LINEAR",
                    "output" : 9
                },
                {
                    "input" : 8,
                    "interpolation" : "LINEAR",
                    "output" : 10
                },
                {
                    "input" : 8,
                    "interpolation" : "LINEAR",
                    "output" : 11
                }
            ]
        },
        {
            "channels" : [
                {
                    "sampler" : 0,
                    "target" : {
                        "node" : 1,
                        "path" : "translation"
                    }
                },
                {
                    "sampler" : 1,
                    "target" : {
                        "node" : 1,
                        "path" : "rotation"
                    }
                },
                {
                    "sampler" : 2,
                    "target" : {
                        "node" : 1,
                        "path" : "scale"
                    }
                }
            ],
            "name" : "CoreMotion",
            "samplers" : [
                {
                    "input" : 8,
                    "interpolation" : "LINEAR",
                    "output" : 12
                },
                {
                    "input" : 8,
                    "interpolation" : "LINEAR",
                    "output" : 13
                },
                {
                    "input" : 8,
                    "interpolation" : "LINEAR",
                    "output" : 14
                }
            ]
        },
        {
            "channels" : [
                {
                    "sampler" : 0,
                    "target" : {
                        "node" : 5,
                        "path" : "translation"
                    }
                },
                {
                    "sampler" : 1,
                    "target" : {
                        "node" : 5,
                        "path" : "rotation"
                    }
                },
                {
                    "sampler" : 2,
                    "target" : {
                        "node" : 5,
                        "path" : "scale"
                    }
                }
            ],
            "name" : "Action.002",
            "samplers" : [
                {
                    "input" : 8,
                    "interpolation" : "LINEAR",
                    "output" : 15
                },
                {
                    "input" : 8,
                    "interpolation" : "LINEAR",
                    "output" : 16
                },
                {
                    "input" : 8,
                    "interpolation" : "LINEAR",
                    "output" : 17
                }
            ]
        }
    ],
    "materials" : [
        {
            "alphaCutoff" : 0.5,
            "alphaMode" : "MASK",
            "doubleSided" : true,
            "emissiveFactor" : [
                0.1519438922405243,
                0,
                0.025267450138926506
            ],
            "extras" : {},
            "name" : "Core_MAT.001",
            "pbrMetallicRoughness" : {
                "baseColorFactor" : [
                    0.9843137264251709,
                    0.3960784375667572,
                    0.3960784375667572,
                    1
                ],
                "metallicFactor" : 0,
                "roughnessFactor" : 0.22272725403308868
            }
        },
        {
            "alphaMode" : "BLEND",
            "emissiveFactor" : [
                0,
                0,
                0
            ],
            "extras" : {},
            "name" : "Wall_MAT.001",
            "pbrMetallicRoughness" : {
                "baseColorFactor" : [
                    1,
                    0.6784313917160034,
                    0.6784313917160034,
                    0.5
                ],
                "metallicFactor" : 0,
                "roughnessFactor" : 0
            }
        }
    ],
    "meshes" : [
        {
            "name" : "Mesh_1",
            "primitives" : [
                {
                    "attributes" : {
                        "POSITION" : 0,
                        "NORMAL" : 1,
                        "TEXCOORD_0" : 2
                    },
                    "indices" : 3,
                    "material" : 0
                }
            ]
        },
        {
            "name" : "Mesh_0",
            "primitives" : [
                {
                    "attributes" : {
                        "POSITION" : 4,
                        "NORMAL" : 5,
                        "TEXCOORD_0" : 6
                    },
                    "indices" : 7,
                    "material" : 1
                }
            ]
        }
    ],
    "accessors" : [
        {
            "bufferView" : 0,
            "componentType" : 5126,
            "count" : 6375,
            "max" : [
                0.8822485208511353,
                0.9073934555053711,
                0.9209414720535278
            ],
            "min" : [
                -0.8955369591712952,
                -0.9081270098686218,
                -0.8831323981285095
            ],
            "type" : "VEC3"
        },
        {
            "bufferView" : 1,
            "componentType" : 5126,
            "count" : 6375,
            "type" : "VEC3"
        },
        {
            "bufferView" : 2,
            "componentType" : 5126,
            "count" : 6375,
            "type" : "VEC2"
        },
        {
            "bufferView" : 3,
            "componentType" : 5123,
            "count" : 36864,
            "type" : "SCALAR"
        },
        {
            "bufferView" : 4,
            "componentType" : 5126,
            "count" : 6375,
            "max" : [
                0.8498216867446899,
                0.8464579582214355,
                0.8675377368927002
            ],
            "min" : [
                -0.8392025828361511,
                -0.842335045337677,
                -0.8681155443191528
            ],
            "type" : "VEC3"
        },
        {
            "bufferView" : 5,
            "componentType" : 5126,
            "count" : 6375,
            "type" : "VEC3"
        },
        {
            "bufferView" : 6,
            "componentType" : 5126,
            "count" : 6375,
            "type" : "VEC2"
        },
        {
            "bufferView" : 7,
            "componentType" : 5123,
            "count" : 36864,
            "type" : "SCALAR"
        },
        {
            "bufferView" : 8,
            "componentType" : 5126,
            "count" : 250,
            "max" : [
                10.416666666666666
            ],
            "min" : [
                0.041666666666666664
            ],
            "type" : "SCALAR"
        },
        {
            "bufferView" : 9,
            "componentType" : 5126,
            "count" : 250,
            "type" : "VEC3"
        },
        {
            "bufferView" : 10,
            "componentType" : 5126,
            "count" : 250,
            "type" : "VEC4"
        },
        {
            "bufferView" : 11,
            "componentType" : 5126,
            "count" : 250,
            "type" : "VEC3"
        },
        {
            "bufferView" : 12,
            "componentType" : 5126,
            "count" : 250,
            "type" : "VEC3"
        },
        {
            "bufferView" : 13,
            "componentType" : 5126,
            "count" : 250,
            "type" : "VEC4"
        },
        {
            "bufferView" : 14,
            "componentType" : 5126,
            "count" : 250,
            "type" : "VEC3"
        },
        {
            "bufferView" : 15,
            "componentType" : 5126,
            "count" : 250,
            "type" : "VEC3"
        },
        {
            "bufferView" : 16,
            "componentType" : 5126,
            "count" : 250,
            "type" : "VEC4"
        },
        {
            "bufferView" : 17,
            "componentType" : 5126,
            "count" : 250,
            "type" : "VEC3"
        }
    ],
    "bufferViews" : [
        {
            "buffer" : 0,
            "byteLength" : 76500,
            "byteOffset" : 0
        },
        {
            "buffer" : 0,
            "byteLength" : 76500,
            "byteOffset" : 76500
        },
        {
            "buffer" : 0,
            "byteLength" : 51000,
            "byteOffset" : 153000
        },
        {
            "buffer" : 0,
            "byteLength" : 73728,
            "byteOffset" : 204000
        },
        {
            "buffer" : 0,
            "byteLength" : 76500,
            "byteOffset" : 277728
        },
        {
            "buffer" : 0,
            "byteLength" : 76500,
            "byteOffset" : 354228
        },
        {
            "buffer" : 0,
            "byteLength" : 51000,
            "byteOffset" : 430728
        },
        {
            "buffer" : 0,
            "byteLength" : 73728,
            "byteOffset" : 481728
        },
        {
            "buffer" : 0,
            "byteLength" : 1000,
            "byteOffset" : 555456
        },
        {
            "buffer" : 0,
            "byteLength" : 3000,
            "byteOffset" : 556456
        },
        {
            "buffer" : 0,
            "byteLength" : 4000,
            "byteOffset" : 559456
        },
        {
            "buffer" : 0,
            "byteLength" : 3000,
            "byteOffset" : 563456
        },
        {
            "buffer" : 0,
            "byteLength" : 3000,
            "byteOffset" : 566456
        },
        {
            "buffer" : 0,
            "byteLength" : 4000,
            "byteOffset" : 569456
        },
        {
            "buffer" : 0,
            "byteLength" : 3000,
            "byteOffset" : 573456
        },
        {
            "buffer" : 0,
            "byteLength" : 3000,
            "byteOffset" : 576456
        },
        {
            "buffer" : 0,
            "byteLength" : 4000,
            "byteOffset" : 579456
        },
        {
            "buffer" : 0,
            "byteLength" : 3000,
            "byteOffset" : 583456
        }
    ],
    "buffers" : [
        {
            "byteLength" : 586456,
            "uri" : "data:application/octet-stream;base64,"
        }
    ]
}
